<svg width="26" height="26" viewBox="0 0 26 26" fill="none" xmlns="http://www.w3.org/2000/svg">
<path fill-rule="evenodd" clip-rule="evenodd" d="M19.364 6.63606C19.5515 6.82359 19.6569 7.07795 19.6569 7.34316C19.6569 7.60838 19.5515 7.86273 19.364 8.05027L13.7071 13.7071C13.5196 13.8947 13.2652 14 13 14C12.7348 14 12.4804 13.8947 12.2929 13.7071L6.63604 8.05027C6.4485 7.86273 6.34315 7.60838 6.34315 7.34316C6.34315 7.07795 6.4485 6.82359 6.63604 6.63606C6.82358 6.44852 7.07793 6.34316 7.34315 6.34316C7.60836 6.34316 7.86272 6.44852 8.05025 6.63606L13 11.5858L17.9497 6.63606C18.1373 6.44852 18.3916 6.34316 18.6569 6.34316C18.9221 6.34316 19.1764 6.44852 19.364 6.63606Z" fill="black"/>
<path fill-rule="evenodd" clip-rule="evenodd" d="M12.2929 12.2929C12.4804 12.1054 12.7348 12 13 12C13.2652 12 13.5196 12.1054 13.7071 12.2929L19.364 17.9498C19.5515 18.1373 19.6569 18.3917 19.6569 18.6569C19.6569 18.9221 19.5515 19.1765 19.364 19.364C19.1764 19.5515 18.9221 19.6569 18.6569 19.6569C18.3916 19.6569 18.1373 19.5515 17.9497 19.364L13 14.4142L8.05025 19.364C7.86272 19.5515 7.60836 19.6569 7.34315 19.6569C7.07793 19.6569 6.82358 19.5515 6.63604 19.364C6.4485 19.1765 6.34315 18.9221 6.34315 18.6569C6.34315 18.3917 6.4485 18.1373 6.63604 17.9498L12.2929 12.2929Z" fill="black"/>
</svg>
